<svg xmlns="http://www.w3.org/2000/svg" viewBox="0 0 900 700" width="900" height="700" role="img" aria-label="Кумыс, тары шай, лимонады">
  <defs>
    <linearGradient id="bg" x1="0" y1="0" x2="1" y2="1">
      <stop offset="0" stop-color="#1b1410"/>
      <stop offset="0.55" stop-color="#120d0a"/>
      <stop offset="1" stop-color="#241a12"/>
    </linearGradient>
    <linearGradient id="gold" x1="0" y1="0" x2="1" y2="0">
      <stop offset="0" stop-color="#8a6a2f"/>
      <stop offset="0.5" stop-color="#e2c079"/>
      <stop offset="1" stop-color="#8a6a2f"/>
    </linearGradient>
    <pattern id="oyu" width="120" height="72" patternUnits="userSpaceOnUse" patternTransform="rotate(0)">
      <g fill="none" stroke="#c8a45c" stroke-width="2.2" stroke-linecap="round" opacity="0.16">
        <path d="M60 62 C60 40 44 30 30 34 C18 37 14 49 22 55 C28 59 36 56 35 49"/>
        <path d="M60 62 C60 40 76 30 90 34 C102 37 106 49 98 55 C92 59 84 56 85 49"/>
        <path d="M60 62 L60 70"/>
      </g>
    </pattern>
  </defs>
  <rect width="900" height="700" fill="url(#bg)"/>
  <rect width="900" height="700" fill="url(#oyu)"/>
  <rect x="18" y="18" width="864" height="664" fill="none" stroke="url(#gold)" stroke-width="1.5" opacity="0.5"/>
  <g transform="translate(450, 316)" opacity="0.75">
    <g fill="none" stroke="url(#gold)" stroke-width="2.4" stroke-linejoin="round" stroke-linecap="round">
      <path d="M-34 -14 h14 l6 -8 h28 l6 8 h14 a6 6 0 0 1 6 6 v34 a6 6 0 0 1 -6 6 h-68 a6 6 0 0 1 -6 -6 v-34 a6 6 0 0 1 6 -6 z"/>
      <circle cx="0" cy="11" r="13"/>
    </g>
  </g>
  <text x="450" y="384" text-anchor="middle" font-family="Georgia,'Times New Roman',serif" font-size="26" fill="#e8d9c2" letter-spacing="0.5">Кумыс, тары шай, лимонады</text>
  <text x="450" y="416" text-anchor="middle" font-family="Helvetica,Arial,sans-serif" font-size="17" fill="#9c8b76" letter-spacing="2.2">900 × 700</text>
</svg>
